<mxfile host="app.diagrams.net" agent="Mozilla/5.0 (Windows NT 10.0; Win64; x64) AppleWebKit/537.36 (KHTML, like Gecko) Chrome/129.0.0.0 Safari/537.36" version="24.7.17">
  <diagram name="Page-1" id="I6gqVKRJCeWWmfQ_gIcC">
    <mxGraphModel dx="704" dy="1474" grid="1" gridSize="10" guides="1" tooltips="1" connect="1" arrows="1" fold="1" page="1" pageScale="1" pageWidth="850" pageHeight="1100" math="0" shadow="0">
      <root>
        <mxCell id="0" />
        <mxCell id="1" parent="0" />
        <mxCell id="CcIx1SIDFTJqblKRCucf-16" value="" style="html=1;dashed=0;whiteSpace=wrap;" vertex="1" parent="1">
          <mxGeometry x="580" y="-30" width="790" height="560" as="geometry" />
        </mxCell>
        <mxCell id="CcIx1SIDFTJqblKRCucf-15" value="" style="html=1;dashed=0;whiteSpace=wrap;" vertex="1" parent="1">
          <mxGeometry x="40" y="-10" width="440" height="290" as="geometry" />
        </mxCell>
        <mxCell id="CcIx1SIDFTJqblKRCucf-3" value="Matakuliah, Nilai Huruf, SKS" style="edgeStyle=orthogonalEdgeStyle;rounded=0;orthogonalLoop=1;jettySize=auto;html=1;exitX=1;exitY=0.25;exitDx=0;exitDy=0;entryX=0.5;entryY=0;entryDx=0;entryDy=0;" edge="1" parent="1" source="CcIx1SIDFTJqblKRCucf-1" target="CcIx1SIDFTJqblKRCucf-2">
          <mxGeometry relative="1" as="geometry" />
        </mxCell>
        <mxCell id="CcIx1SIDFTJqblKRCucf-1" value="USER" style="whiteSpace=wrap;html=1;aspect=fixed;" vertex="1" parent="1">
          <mxGeometry x="60" y="40" width="80" height="80" as="geometry" />
        </mxCell>
        <mxCell id="CcIx1SIDFTJqblKRCucf-4" value="Daftar Nilai" style="edgeStyle=orthogonalEdgeStyle;rounded=0;orthogonalLoop=1;jettySize=auto;html=1;exitX=0;exitY=0.5;exitDx=0;exitDy=0;entryX=0.5;entryY=1;entryDx=0;entryDy=0;" edge="1" parent="1" source="CcIx1SIDFTJqblKRCucf-2" target="CcIx1SIDFTJqblKRCucf-1">
          <mxGeometry relative="1" as="geometry" />
        </mxCell>
        <mxCell id="CcIx1SIDFTJqblKRCucf-2" value="HITUNG IPK" style="shape=ellipse;html=1;dashed=0;whiteSpace=wrap;aspect=fixed;perimeter=ellipsePerimeter;" vertex="1" parent="1">
          <mxGeometry x="300" y="120" width="140" height="140" as="geometry" />
        </mxCell>
        <mxCell id="CcIx1SIDFTJqblKRCucf-5" value="DIAGRAM KONTEKS" style="text;html=1;align=center;verticalAlign=middle;resizable=0;points=[];autosize=1;strokeColor=none;fillColor=none;" vertex="1" parent="1">
          <mxGeometry x="60" y="-10" width="140" height="30" as="geometry" />
        </mxCell>
        <mxCell id="CcIx1SIDFTJqblKRCucf-6" value="DIAGRAM LEVEL 1" style="text;html=1;align=center;verticalAlign=middle;resizable=0;points=[];autosize=1;strokeColor=none;fillColor=none;" vertex="1" parent="1">
          <mxGeometry x="595" y="-10" width="130" height="30" as="geometry" />
        </mxCell>
        <mxCell id="CcIx1SIDFTJqblKRCucf-12" value="Matakuliah, Nilai Huruf, SKS" style="edgeStyle=orthogonalEdgeStyle;rounded=0;orthogonalLoop=1;jettySize=auto;html=1;exitX=1;exitY=1;exitDx=0;exitDy=0;entryX=0.25;entryY=1;entryDx=0;entryDy=0;" edge="1" parent="1" source="CcIx1SIDFTJqblKRCucf-7" target="CcIx1SIDFTJqblKRCucf-11">
          <mxGeometry relative="1" as="geometry" />
        </mxCell>
        <mxCell id="CcIx1SIDFTJqblKRCucf-7" value="1&lt;div&gt;&lt;br&gt;&lt;/div&gt;&lt;div&gt;Memasukkan Data&lt;/div&gt;" style="shape=ellipse;html=1;dashed=0;whiteSpace=wrap;aspect=fixed;perimeter=ellipsePerimeter;" vertex="1" parent="1">
          <mxGeometry x="840" y="120" width="140" height="140" as="geometry" />
        </mxCell>
        <mxCell id="CcIx1SIDFTJqblKRCucf-8" value="USER" style="whiteSpace=wrap;html=1;aspect=fixed;" vertex="1" parent="1">
          <mxGeometry x="600" y="40" width="80" height="80" as="geometry" />
        </mxCell>
        <mxCell id="CcIx1SIDFTJqblKRCucf-14" value="Daftar Nilai Matakuliah" style="edgeStyle=orthogonalEdgeStyle;rounded=0;orthogonalLoop=1;jettySize=auto;html=1;exitX=0;exitY=0.5;exitDx=0;exitDy=0;entryX=0.5;entryY=1;entryDx=0;entryDy=0;" edge="1" parent="1" source="CcIx1SIDFTJqblKRCucf-9" target="CcIx1SIDFTJqblKRCucf-8">
          <mxGeometry x="-0.48" y="-10" relative="1" as="geometry">
            <mxPoint x="730" y="150" as="targetPoint" />
            <mxPoint as="offset" />
          </mxGeometry>
        </mxCell>
        <mxCell id="CcIx1SIDFTJqblKRCucf-9" value="&lt;div&gt;2&lt;/div&gt;&lt;div&gt;&lt;br&gt;&lt;/div&gt;&lt;div&gt;Menampilkan Data&lt;/div&gt;&lt;div&gt;&lt;br&gt;&lt;/div&gt;" style="shape=ellipse;html=1;dashed=0;whiteSpace=wrap;aspect=fixed;perimeter=ellipsePerimeter;" vertex="1" parent="1">
          <mxGeometry x="840" y="350" width="140" height="140" as="geometry" />
        </mxCell>
        <mxCell id="CcIx1SIDFTJqblKRCucf-10" value="Matakuliah, NIlai Huruf, SKS" style="edgeStyle=orthogonalEdgeStyle;rounded=0;orthogonalLoop=1;jettySize=auto;html=1;exitX=1;exitY=0.25;exitDx=0;exitDy=0;entryX=0.457;entryY=-0.007;entryDx=0;entryDy=0;entryPerimeter=0;" edge="1" parent="1" source="CcIx1SIDFTJqblKRCucf-8" target="CcIx1SIDFTJqblKRCucf-7">
          <mxGeometry relative="1" as="geometry" />
        </mxCell>
        <mxCell id="CcIx1SIDFTJqblKRCucf-13" value="Matakuliah, Nilai Huruf, SKS" style="edgeStyle=orthogonalEdgeStyle;rounded=0;orthogonalLoop=1;jettySize=auto;html=1;exitX=0.75;exitY=1;exitDx=0;exitDy=0;entryX=1;entryY=0.5;entryDx=0;entryDy=0;" edge="1" parent="1" source="CcIx1SIDFTJqblKRCucf-11" target="CcIx1SIDFTJqblKRCucf-9">
          <mxGeometry relative="1" as="geometry" />
        </mxCell>
        <mxCell id="CcIx1SIDFTJqblKRCucf-11" value="Matakuliah.csv" style="html=1;dashed=0;whiteSpace=wrap;shape=partialRectangle;right=0;" vertex="1" parent="1">
          <mxGeometry x="1140" y="130" width="100" height="30" as="geometry" />
        </mxCell>
      </root>
    </mxGraphModel>
  </diagram>
</mxfile>
